<svg xmlns="http://www.w3.org/2000/svg" viewBox="0 0 133.39 101.36"><defs><style>.cls-1{fill:none;stroke:#2e3192;}.cls-1,.cls-3{stroke-miterlimit:10;}.cls-1,.cls-2,.cls-3,.cls-4{fill-rule:evenodd;}.cls-2{fill:#2e3192;}.cls-3{fill:#f7b727;stroke:#f7b727;}.cls-4{fill:#33c6f4;}</style></defs><title>logo</title><g id="Layer_2" data-name="Layer 2"><g id="Layer_1-2" data-name="Layer 1"><path class="cls-1" d="M26.43,98.77c57.86,10.17,89.86-16.83,106.48-81.45"/><path class="cls-2" d="M25.08,93.86l2.86-.57a3.54,3.54,0,0,0,.64,1.31,2.06,2.06,0,0,0,1.32.68,1.58,1.58,0,0,0,1-.14.82.82,0,0,0,.48-.64q.14-.93-1.26-1.71a29.57,29.57,0,0,1-2.58-1.56,3.26,3.26,0,0,1-1.05-3.11A2.91,2.91,0,0,1,28.09,86a4.66,4.66,0,0,1,3.05-.56,5.29,5.29,0,0,1,2.64,1.13,3.83,3.83,0,0,1,1.35,2.07l-2.74.58a2.87,2.87,0,0,0-.52-1,1.7,1.7,0,0,0-1.07-.54,1.27,1.27,0,0,0-.82.13.83.83,0,0,0-.44.68q-.09.63,1.32,1.41a24.09,24.09,0,0,1,2.63,1.6,2.9,2.9,0,0,1,1.14,2.73,3.52,3.52,0,0,1-1.79,2.64,5.16,5.16,0,0,1-3.5.6,5.61,5.61,0,0,1-2.78-1.19,4.38,4.38,0,0,1-1.48-2.44Zm24.28-7.23.06,8a3.59,3.59,0,0,1-1.13,2.94A4.83,4.83,0,0,1,45,98.5a4.68,4.68,0,0,1-3.25-1.09,4,4,0,0,1-1.08-3l-.06-8,3.28.07.06,8.14a1.91,1.91,0,0,0,.3,1.16,1.35,1.35,0,0,0,1.14.52,1.12,1.12,0,0,0,1.08-.54,2.37,2.37,0,0,0,.25-1.24l-.06-8,2.74.06ZM57.5,87.7l.63,2.82.57-.08a2.69,2.69,0,0,0,1.28-.5,1.15,1.15,0,0,0,.41-1.21,1.31,1.31,0,0,0-.89-1,2.75,2.75,0,0,0-1.42-.1l-.58.09Zm-1.11,10L53.83,86.14l4.79-.73a5.52,5.52,0,0,1,3.23.31A3.13,3.13,0,0,1,63.68,88a3.08,3.08,0,0,1-.74,3,5.57,5.57,0,0,1-3.11,1.33l-.71.08-.55.05,1,4.71-3.22.49Zm15-3.2L66.64,83.45,74.25,81l.91,2.14L70.61,84.6l1,2.23,3.05-1L75.54,88l-3.05,1,1,2.3L78,89.79,79,92l-7.61,2.48Zm13.79-5.58,2.68-1.64-3.25-4.23.89-.55,4.59,3.41,2.64-1.62-5.43-3.66A2.74,2.74,0,0,0,87.9,79a2.51,2.51,0,0,0-.57-1.67,3.51,3.51,0,0,0-2.65-1.49,5.21,5.21,0,0,0-3.05.9l-4,2.45,7.52,9.77Zm-3.44-9.6.44-.28a3.6,3.6,0,0,1,1.35-.58,1.34,1.34,0,0,1,1.25.61,1,1,0,0,1,.18,1.08,2.39,2.39,0,0,1-1,1l-.54.33-1.66-2.17ZM98,80.09l-9.86-7.92,2.33-2.38a5.71,5.71,0,0,1,4.2-1.93,7.19,7.19,0,0,1,4.41,1.81,7.43,7.43,0,0,1,2.78,3.73,4,4,0,0,1-1.28,4L98,80.09Zm-6-8.71,6.36,5.12.24-.25a1.67,1.67,0,0,0,.09-2.32,10.92,10.92,0,0,0-2-2,7.13,7.13,0,0,0-2.12-1.27,2.12,2.12,0,0,0-2.35.5l-.19.19Zm10.27-5.46A8.72,8.72,0,0,1,99,62.76a3.63,3.63,0,0,1,.36-4.07,4.32,4.32,0,0,1,3.92-1.87,9.77,9.77,0,0,1,4.48,1.56,8.82,8.82,0,0,1,3.32,3.15,3.58,3.58,0,0,1-.35,4,4.34,4.34,0,0,1-3.93,1.89,9.63,9.63,0,0,1-4.49-1.55Zm1.91-2.64a18.39,18.39,0,0,0,2.72,1.46,1.42,1.42,0,0,0,1.76-.39c.37-.5.26-1-.31-1.59A18,18,0,0,0,105.84,61a17.06,17.06,0,0,0-2.72-1.45,1.37,1.37,0,0,0-1.74.35c-.37.51-.27,1,.29,1.61a16.44,16.44,0,0,0,2.54,1.75ZM116.1,56.6l-11.8-5.22,1.14-2.22,7.9-.24L107,46.09l1.1-2.12,11.8,5.22-1.09,2.12-8.21.21,6.58,2.95-1.1,2.13ZM119,33.73l6.36,2.11L124.92,37l-1.42.15a3.12,3.12,0,0,1,.48,1.39A3,3,0,0,1,123.8,40a3.81,3.81,0,0,1-2.86,2.54,9.11,9.11,0,0,1-4.75-.51,10.37,10.37,0,0,1-4.25-2.39,3.67,3.67,0,0,1-.83-4.14,4,4,0,0,1,2.4-2.57,5.67,5.67,0,0,1,3.72.16l-1,2.68a5.32,5.32,0,0,0-1.8-.35,1.11,1.11,0,0,0-1,.78c-.2.53,0,1,.77,1.51A13.48,13.48,0,0,0,117,38.88a14.1,14.1,0,0,0,3.09.78,1.38,1.38,0,0,0,1.56-.84,1.14,1.14,0,0,0-.33-1.24,2.68,2.68,0,0,0-1.17-.75l-.53,1.39-2.07-.69Z"/><path class="cls-3" d="M41.68.5C64.43.5,82.87,18.63,82.87,41S64.43,81.5,41.68,81.5.5,63.37.5,41,18.94.5,41.68.5Z"/><path class="cls-2" d="M47,34.26c-8.1-2-19.31-1.72-23.63-1C15.13,33.84,7.57,38.87.7,41.9,9.38,40.84,17,38.62,24.21,40,39.17,43,52,51.94,67.33,51.63c7.32.4,7.65,0,14.09,0C77.2,46.19,68.3,41,67.9,32.07c-.22-5,4.43-10.4,7.94-12.42C84,13.94,108.61,8.86,124.85,8l-.07-1.15L99.49,6.53l-5.94.3C66.41,8.24,65.11,16.07,47,34.26Z"/><path class="cls-4" d="M1,46.29C3,65.72,21.8,82.67,42.15,81.38l2.78-.18c13.76,0,29.23-11.49,33.78-22.44-10.7-4.33-23.06-.43-38.75-9C32.22,45.48,13.08,39.54,1,46.29Z"/></g></g></svg>